<svg xmlns="http://www.w3.org/2000/svg" viewBox="0 0 100 100" width="100" height="100">
  <defs>
    <linearGradient id="metalGradient" x1="0%" y1="0%" x2="100%" y2="100%">
      <stop offset="0%" style="stop-color:#ffffff;stop-opacity:1" />
      <stop offset="30%" style="stop-color:#e8e8e8;stop-opacity:1" />
      <stop offset="70%" style="stop-color:#c0c0c0;stop-opacity:1" />
      <stop offset="100%" style="stop-color:#a0a0a0;stop-opacity:1" />
    </linearGradient>
    
    <linearGradient id="shadowGradient" x1="0%" y1="0%" x2="100%" y2="100%">
      <stop offset="0%" style="stop-color:#2c3e50;stop-opacity:0.8" />
      <stop offset="50%" style="stop-color:#34495e;stop-opacity:0.6" />
      <stop offset="100%" style="stop-color:#2c3e50;stop-opacity:0.4" />
    </linearGradient>
  </defs>
  
  <!-- Fundo preto -->
  <rect width="100" height="100" fill="#000000"/>
  
  <!-- Dragão simplificado -->
  <path d="M 20 50 Q 15 40 25 35 Q 35 30 45 35 Q 55 40 65 35 Q 75 30 85 35 Q 95 40 85 50 Q 75 60 65 55 Q 55 50 45 55 Q 35 60 25 55 Q 15 50 20 50" 
        fill="url(#metalGradient)" 
        stroke="url(#shadowGradient)" 
        stroke-width="1"/>
  
  <!-- Cabeça do dragão -->
  <circle cx="25" cy="45" r="8" fill="url(#metalGradient)" stroke="url(#shadowGradient)" stroke-width="1"/>
  
  <!-- Olho -->
  <circle cx="25" cy="45" r="2" fill="#ff6b35"/>
  
  <!-- Chifres -->
  <path d="M 20 35 L 18 25 L 22 30" fill="url(#metalGradient)" stroke="url(#shadowGradient)" stroke-width="0.5"/>
  <path d="M 30 35 L 32 25 L 28 30" fill="url(#metalGradient)" stroke="url(#shadowGradient)" stroke-width="0.5"/>
  
  <!-- Espinhos -->
  <path d="M 45 35 L 43 25 L 47 30" fill="url(#metalGradient)" stroke="url(#shadowGradient)" stroke-width="0.5"/>
  <path d="M 65 35 L 63 25 L 67 30" fill="url(#metalGradient)" stroke="url(#shadowGradient)" stroke-width="0.5"/>
  <path d="M 85 35 L 83 25 L 87 30" fill="url(#metalGradient)" stroke="url(#shadowGradient)" stroke-width="0.5"/>
</svg>
